<?xml version="1.0" standalone="yes"?>
<svg xmlns="http://www.w3.org/2000/svg" width="48" height="48">
<path style="fill:#ffffff; stroke:none;" d="M0 0L0 48L48 48L48 0L0 0z"/>
<path style="fill:#6395a1; stroke:none;" d="M4 4L4 45L45 45L45 4L4 4z"/>
<path style="fill:#a5c2c9; stroke:none;" d="M13 21L12 23L13 21z"/>
<path style="fill:#d1dfe3; stroke:none;" d="M14.6667 21.3333L15.3333 21.6667L14.6667 21.3333z"/>
<path style="fill:#a5c2c9; stroke:none;" d="M16 21L18 23L16 21M22 21L21 23L22 21z"/>
<path style="fill:#d1dfe3; stroke:none;" d="M23.6667 21.3333L24.3333 21.6667L23.6667 21.3333z"/>
<path style="fill:#a5c2c9; stroke:none;" d="M25 21L27 23L25 21M32 21L31 23L32 21z"/>
<path style="fill:#d1dfe3; stroke:none;" d="M33.6667 21.3333L34.3333 21.6667L33.6667 21.3333z"/>
<path style="fill:#a5c2c9; stroke:none;" d="M35 21L37 23L35 21z"/>
<path style="fill:#d9e5e7; stroke:none;" d="M13 22L13 26L17 26L17 22L13 22M22 22L22 26L26 26L26 22L22 22M32 22L32 26L36 26L36 22L32 22z"/>
<path style="fill:#d1dfe3; stroke:none;" d="M12.3333 23.6667L12.6667 24.3333L12.3333 23.6667M17.3333 23.6667L17.6667 24.3333L17.3333 23.6667M21.3333 23.6667L21.6667 24.3333L21.3333 23.6667M26.3333 23.6667L26.6667 24.3333L26.3333 23.6667M31.3333 23.6667L31.6667 24.3333L31.3333 23.6667M36.3333 23.6667L36.6667 24.3333L36.3333 23.6667z"/>
<path style="fill:#a5c2c9; stroke:none;" d="M12 25L13 26L12 25M17 25L18 26L17 25M21 25L22 26L21 25M26 25L27 26L26 25M31 25L32 26L31 25M36 25L37 26L36 25M13 26L14 27L13 26z"/>
<path style="fill:#d1dfe3; stroke:none;" d="M14.6667 26.3333L15.3333 26.6667L14.6667 26.3333z"/>
<path style="fill:#a5c2c9; stroke:none;" d="M16 26L17 27L16 26M22 26L23 27L22 26z"/>
<path style="fill:#d1dfe3; stroke:none;" d="M23.6667 26.3333L24.3333 26.6667L23.6667 26.3333z"/>
<path style="fill:#a5c2c9; stroke:none;" d="M25 26L26 27L25 26M32 26L33 27L32 26z"/>
<path style="fill:#d1dfe3; stroke:none;" d="M33.6667 26.3333L34.3333 26.6667L33.6667 26.3333z"/>
<path style="fill:#a5c2c9; stroke:none;" d="M35 26L36 27L35 26z"/>
</svg>
