<?xml version="1.0" standalone="no"?>
<!DOCTYPE svg PUBLIC "-//W3C//DTD SVG 20010904//EN"
 "http://www.w3.org/TR/2001/REC-SVG-20010904/DTD/svg10.dtd">
<svg version="1.0" xmlns="http://www.w3.org/2000/svg"
 width="512.000000pt" height="512.000000pt" viewBox="0 0 512.000000 512.000000"
 preserveAspectRatio="xMidYMid meet">

<g transform="translate(0.000000,512.000000) scale(0.100000,-0.100000)"
fill="#000000" stroke="none">
<path d="M3655 3494 c0 -19 3 -34 8 -34 4 0 7 6 7 14 0 8 3 21 6 29 3 8 -1 17
-8 19 -9 4 -13 -5 -13 -28z"/>
<path d="M3835 3407 c8 -13 13 -31 10 -40 -4 -8 -2 -18 4 -22 6 -3 15 5 21 20
13 35 14 32 -21 50 l-30 16 16 -24z"/>
<path d="M1271 3394 c-202 -54 -374 -227 -376 -376 0 -49 4 -61 29 -87 16 -16
42 -35 59 -41 29 -10 29 -9 14 8 -42 47 -6 133 73 175 l52 27 302 2 c165 1
270 3 233 5 -52 3 -66 7 -59 16 6 7 18 62 27 122 9 61 18 115 19 120 2 6 3 15
2 20 0 6 24 13 54 16 30 3 -42 6 -160 7 -160 0 -229 -3 -269 -14z"/>
<path d="M2477 3373 c-4 -3 -7 -64 -7 -135 l0 -128 25 0 25 0 0 117 c0 140 4
139 70 -10 45 -101 46 -102 82 -105 30 -3 39 1 49 20 12 22 11 23 -8 6 -11
-10 -22 -18 -25 -18 -8 0 -4 22 7 40 8 13 6 13 -8 1 -14 -11 -18 -10 -28 13
-7 14 -17 23 -22 19 -6 -4 -8 0 -4 10 8 20 -32 119 -44 111 -5 -3 -7 -9 -4
-14 3 -5 1 -11 -4 -14 -8 -5 -25 30 -22 47 1 5 -3 6 -8 3 -5 -3 -11 0 -14 8
-3 8 -16 16 -29 19 -13 2 -4 4 19 4 42 0 60 -16 47 -40 -5 -9 -4 -9 5 -1 10 9
10 17 2 33 -9 16 -21 21 -55 21 -23 0 -46 -3 -49 -7z m28 -33 c3 -5 1 -10 -4
-10 -6 0 -11 5 -11 10 0 6 2 10 4 10 3 0 8 -4 11 -10z m96 -73 c-13 -13 -26
-3 -16 12 3 6 11 8 17 5 6 -4 6 -10 -1 -17z m9 -27 c5 8 9 7 13 -5 4 -9 3 -13
-3 -10 -13 8 -13 2 1 -29 7 -14 16 -23 20 -20 5 3 9 0 9 -5 0 -6 -4 -11 -10
-11 -10 0 -51 72 -49 87 0 4 3 2 6 -6 4 -10 7 -10 13 -1z m61 -103 c-1 -12
-15 -9 -19 4 -3 6 1 10 8 8 6 -3 11 -8 11 -12z"/>
<path d="M3915 3325 c0 -24 3 -39 7 -32 10 16 10 64 1 70 -5 3 -8 -15 -8 -38z"/>
<path d="M2832 3213 l-2 -103 25 0 c25 0 25 0 23 88 l-2 87 -3 -82 c-3 -64 -7
-83 -18 -83 -11 0 -15 21 -18 98 l-3 97 -2 -102z"/>
<path d="M3826 3295 c-11 -8 -19 -29 -21 -50 -1 -19 -1 -34 0 -33 4 5 44 98
42 98 -1 0 -10 -7 -21 -15z"/>
<path d="M2765 3249 c-4 -6 -5 -12 -2 -15 2 -3 7 2 10 11 7 17 1 20 -8 4z"/>
<path d="M3589 3226 c4 -6 11 -18 14 -26 3 -9 6 -5 6 11 1 16 -4 26 -14 26 -9
0 -11 -4 -6 -11z"/>
<path d="M2706 3205 c-9 -26 -7 -32 5 -12 6 10 9 21 6 23 -2 3 -7 -2 -11 -11z"/>
<path d="M2736 3185 c-9 -26 -7 -32 5 -12 6 10 9 21 6 23 -2 3 -7 -2 -11 -11z"/>
<path d="M490 2617 c-149 -316 -173 -376 -167 -421 3 -27 4 -26 6 9 1 27 4 35
10 26 5 -7 11 -9 14 -4 4 6 25 7 54 2 26 -4 83 -8 125 -8 42 -1 110 -5 150
-11 40 -5 145 -12 233 -14 206 -6 371 -14 465 -22 108 -9 193 -13 384 -18 115
-4 173 -9 184 -18 13 -11 14 -11 7 2 -7 13 -6 13 7 2 13 -10 18 -4 37 46 27
77 27 88 -8 123 l-29 29 -601 0 c-588 0 -601 0 -621 20 -27 27 -26 35 17 131
23 50 33 84 27 86 -6 2 -32 17 -57 33 -82 52 -121 140 -106 240 3 25 6 46 4
47 -1 2 -62 -124 -135 -280z"/>
<path d="M1675 2870 c-137 -3 -239 -7 -226 -8 24 -2 24 -2 5 -17 -10 -8 -15
-15 -10 -15 6 0 -2 -12 -16 -27 -14 -16 -36 -48 -49 -73 -13 -25 -32 -56 -41
-69 -10 -13 -15 -27 -12 -32 3 -5 0 -9 -5 -9 -6 0 -11 -7 -11 -15 0 -8 -12
-17 -27 -21 -16 -3 -32 -7 -38 -9 -5 -2 134 -5 309 -7 196 -2 331 1 350 7 26
9 36 23 68 95 20 47 37 99 37 115 1 39 -21 71 -56 81 -16 5 -140 7 -278 4z"/>
<path d="M4482 2173 c1 -101 5 -89 10 30 2 37 0 67 -4 67 -5 0 -7 -44 -6 -97z"/>
<path d="M4678 2263 l42 -4 0 -86 c0 -70 -3 -88 -17 -99 -10 -7 -14 -16 -10
-21 5 -4 15 1 23 11 10 14 14 48 14 113 l0 93 -47 -2 -48 -1 43 -4z"/>
<path d="M4497 2059 c7 -7 15 -10 18 -7 3 3 -2 9 -12 12 -14 6 -15 5 -6 -5z"/>
<path d="M4600 2050 l-75 -6 78 -2 c46 -1 77 2 77 8 0 6 -1 9 -2 8 -2 -1 -37
-4 -78 -8z"/>
</g>
</svg>
